<svg width="30" height="40" viewBox="0 0 30 40" fill="none" xmlns="http://www.w3.org/2000/svg">
<path d="M30 20C30 31.0457 23.2843 40 15 40C6.71573 40 0 31.0457 0 20C0 8.9543 6.71573 0 15 0C23.2843 0 30 8.9543 30 20Z" fill="white"/>
<path d="M11 6C11 6.55228 10.5523 7 10 7C9.44772 7 9 6.55228 9 6C9 5.44772 9.44772 5 10 5C10.5523 5 11 5.44772 11 6Z" fill="white"/>
<path d="M15 17.5C15 18.0523 14.5523 18.5 14 18.5C13.4477 18.5 13 18.0523 13 17.5C13 16.9477 13.4477 16.5 14 16.5C14.5523 16.5 15 16.9477 15 17.5Z" fill="white"/>
<path d="M24 10.5C24 11.3284 23.3284 12 22.5 12C21.6716 12 21 11.3284 21 10.5C21 9.67157 21.6716 9 22.5 9C23.3284 9 24 9.67157 24 10.5Z" fill="white"/>
<path d="M10 13.5C10 14.8807 8.88071 16 7.5 16C6.11929 16 5 14.8807 5 13.5C5 12.1193 6.11929 11 7.5 11C8.88071 11 10 12.1193 10 13.5Z" fill="white"/>
<path d="M18 9C18 10.1046 17.1046 11 16 11C14.8954 11 14 10.1046 14 9C14 7.89543 14.8954 7 16 7C17.1046 7 18 7.89543 18 9Z" fill="white"/>
<path d="M15 17.5C15 16.9477 14.5523 16.5 14 16.5C13.4477 16.5 13 16.9477 13 17.5C13 18.0523 13.4477 18.5 14 18.5C14.5523 18.5 15 18.0523 15 17.5ZM10 13.5C10 12.1193 8.88071 11 7.5 11C6.11929 11 5 12.1193 5 13.5C5 14.8807 6.11929 16 7.5 16C8.88071 16 10 14.8807 10 13.5ZM24 10.5C24 9.67157 23.3284 9 22.5 9C21.6716 9 21 9.67157 21 10.5C21 11.3284 21.6716 12 22.5 12C23.3284 12 24 11.3284 24 10.5ZM18 9C18 7.89543 17.1046 7 16 7C14.8954 7 14 7.89543 14 9C14 10.1046 14.8954 11 16 11C17.1046 11 18 10.1046 18 9ZM11 6C11 5.44772 10.5523 5 10 5C9.44772 5 9 5.44772 9 6C9 6.55228 9.44772 7 10 7C10.5523 7 11 6.55228 11 6ZM15.0996 17.5C15.0996 18.1075 14.6075 18.5996 14 18.5996C13.3925 18.5996 12.9004 18.1075 12.9004 17.5C12.9004 16.8925 13.3925 16.4004 14 16.4004C14.6075 16.4004 15.0996 16.8925 15.0996 17.5ZM10.0996 13.5C10.0996 14.9359 8.93594 16.0996 7.5 16.0996C6.06406 16.0996 4.90039 14.9359 4.90039 13.5C4.90039 12.0641 6.06406 10.9004 7.5 10.9004C8.93594 10.9004 10.0996 12.0641 10.0996 13.5ZM24.0996 10.5C24.0996 11.3837 23.3837 12.0996 22.5 12.0996C21.6163 12.0996 20.9004 11.3837 20.9004 10.5C20.9004 9.61634 21.6163 8.90039 22.5 8.90039C23.3837 8.90039 24.0996 9.61634 24.0996 10.5ZM18.0996 9C18.0996 10.1598 17.1598 11.0996 16 11.0996C14.8402 11.0996 13.9004 10.1598 13.9004 9C13.9004 7.8402 14.8402 6.90039 16 6.90039C17.1598 6.90039 18.0996 7.8402 18.0996 9ZM11.0996 6C11.0996 6.60751 10.6075 7.09961 10 7.09961C9.39249 7.09961 8.90039 6.60751 8.90039 6C8.90039 5.39249 9.39249 4.90039 10 4.90039C10.6075 4.90039 11.0996 5.39249 11.0996 6Z" fill="#4AFCFF"/>
</svg>
