<svg width="30" height="40" viewBox="0 0 30 40" fill="none" xmlns="http://www.w3.org/2000/svg">
<path d="M30 20C30 31.0457 23.2843 40 15 40C6.71573 40 0 31.0457 0 20C0 8.9543 6.71573 0 15 0C23.2843 0 30 8.9543 30 20Z" fill="white"/>
<path d="M11 6C11 6.55228 10.5523 7 10 7C9.44772 7 9 6.55228 9 6C9 5.44772 9.44772 5 10 5C10.5523 5 11 5.44772 11 6Z" fill="#4AFCFF" fill-opacity="0.16"/>
<path d="M15 17.5C15 18.0523 14.5523 18.5 14 18.5C13.4477 18.5 13 18.0523 13 17.5C13 16.9477 13.4477 16.5 14 16.5C14.5523 16.5 15 16.9477 15 17.5Z" fill="#4AFCFF" fill-opacity="0.16"/>
<path d="M24 10.5C24 11.3284 23.3284 12 22.5 12C21.6716 12 21 11.3284 21 10.5C21 9.67157 21.6716 9 22.5 9C23.3284 9 24 9.67157 24 10.5Z" fill="#4AFCFF" fill-opacity="0.16"/>
<path d="M10 13.5C10 14.8807 8.88071 16 7.5 16C6.11929 16 5 14.8807 5 13.5C5 12.1193 6.11929 11 7.5 11C8.88071 11 10 12.1193 10 13.5Z" fill="#4AFCFF" fill-opacity="0.16"/>
<path d="M18 9C18 10.1046 17.1046 11 16 11C14.8954 11 14 10.1046 14 9C14 7.89543 14.8954 7 16 7C17.1046 7 18 7.89543 18 9Z" fill="#4AFCFF" fill-opacity="0.16"/>
</svg>
