<svg width="30" height="40" viewBox="0 0 30 40" fill="none" xmlns="http://www.w3.org/2000/svg">
<path d="M15 0C23.2843 0 30 8.9543 30 20C30 31.0457 23.2843 40 15 40C6.71573 40 0 31.0457 0 20C0 8.9543 6.71573 0 15 0Z" fill="white"/>
<path d="M14 6C14 7.10457 13.1046 8 12 8C10.8954 8 10 7.10457 10 6C10 4.89543 10.8954 4 12 4C13.1046 4 14 4.89543 14 6Z" fill="#4AFCFF" fill-opacity="0.1"/>
<path d="M19 17.5C19 18.8807 17.8807 20 16.5 20C15.1193 20 14 18.8807 14 17.5C14 16.1193 15.1193 15 16.5 15C17.8807 15 19 16.1193 19 17.5Z" fill="#4AFCFF" fill-opacity="0.1"/>
<path d="M24 9C24 9.55228 23.5523 10 23 10C22.4477 10 22 9.55228 22 9C22 8.44772 22.4477 8 23 8C23.5523 8 24 8.44772 24 9Z" fill="#4AFCFF" fill-opacity="0.1"/>
<path d="M8 11C8 11.5523 7.55228 12 7 12C6.44772 12 6 11.5523 6 11C6 10.4477 6.44772 10 7 10C7.55228 10 8 10.4477 8 11Z" fill="#4AFCFF" fill-opacity="0.1"/>
<path d="M17 7C17 7.55228 16.5523 8 16 8C15.4477 8 15 7.55228 15 7C15 6.44772 15.4477 6 16 6C16.5523 6 17 6.44772 17 7Z" fill="#4AFCFF" fill-opacity="0.1"/>
</svg>
