<svg width="30" height="40" viewBox="0 0 30 40" fill="none" xmlns="http://www.w3.org/2000/svg">
<path d="M30 20C30 31.0457 23.2843 40 15 40C6.71573 40 0 31.0457 0 20C0 8.9543 6.71573 0 15 0C23.2843 0 30 8.9543 30 20Z" fill="white"/>
<path d="M13 7C13 8.10457 12.1046 9 11 9C9.89543 9 9 8.10457 9 7C9 5.89543 9.89543 5 11 5C12.1046 5 13 5.89543 13 7Z" fill="#4AFCFF" fill-opacity="0.16"/>
<path d="M18 18.5C18 19.8807 16.8807 21 15.5 21C14.1193 21 13 19.8807 13 18.5C13 17.1193 14.1193 16 15.5 16C16.8807 16 18 17.1193 18 18.5Z" fill="#4AFCFF" fill-opacity="0.16"/>
<path d="M23 10C23 10.5523 22.5523 11 22 11C21.4477 11 21 10.5523 21 10C21 9.44772 21.4477 9 22 9C22.5523 9 23 9.44772 23 10Z" fill="#4AFCFF" fill-opacity="0.16"/>
<path d="M7 12C7 12.5523 6.55228 13 6 13C5.44772 13 5 12.5523 5 12C5 11.4477 5.44772 11 6 11C6.55228 11 7 11.4477 7 12Z" fill="#4AFCFF" fill-opacity="0.16"/>
<path d="M16 8C16 8.55228 15.5523 9 15 9C14.4477 9 14 8.55228 14 8C14 7.44772 14.4477 7 15 7C15.5523 7 16 7.44772 16 8Z" fill="#4AFCFF" fill-opacity="0.16"/>
</svg>
