<svg width="16" height="16" viewBox="0 0 16 16" fill="none" xmlns="http://www.w3.org/2000/svg">
<path d="M0 4C0 1.79086 1.79086 0 4 0H12C14.2091 0 16 1.79086 16 4V12C16 14.2091 14.2091 16 12 16H4C1.79086 16 0 14.2091 0 12V4Z" fill="#F8780F"/>
<path d="M5.06066 11.7207C4.47487 11.1349 4.47487 10.1851 5.06066 9.59934L10.0104 4.6496C10.5962 4.06381 11.5459 4.06381 12.1317 4.6496C12.7175 5.23538 12.7175 6.18513 12.1317 6.77092L7.18198 11.7207C6.59619 12.3065 5.64645 12.3065 5.06066 11.7207Z" fill="white"/>
<path d="M11.7206 11.7193C11.1348 12.3051 10.1851 12.3051 9.59931 11.7193L4.64957 6.76959C4.06378 6.1838 4.06378 5.23406 4.64957 4.64827C5.23535 4.06248 6.1851 4.06248 6.77089 4.64827L11.7206 9.59802C12.3064 10.1838 12.3064 11.1336 11.7206 11.7193Z" fill="white"/>
</svg>
