<svg width="30" height="41" viewBox="0 0 30 41" fill="none" xmlns="http://www.w3.org/2000/svg">
<path d="M30 19.2683C30 29.9099 26.5 40 15 40C3.5 40 0 29.9099 0 19.2683C0 8.62671 7.5 0 15 0C22.5 0 30 8.62671 30 19.2683Z" fill="white"/>
<path d="M24 29C24 33.9706 19.9706 38 15 38C10.0294 38 6 33.9706 6 29C6 24.0294 10.0294 20 15 20C19.9706 20 24 24.0294 24 29Z" fill="#FFC107"/>
<path d="M21.5 38C21.5 41.866 17.866 40.5 14 40.5C10.134 40.5 7 37.366 7 33.5C7 29.634 10.134 33.5 14 33.5C17.866 33.5 21.5 34.134 21.5 38Z" fill="#FFC107"/>
</svg>
